<svg width="20" height="20" xmlns="http://www.w3.org/2000/svg"><path d="M14.688 5.162c0-1.012-.825-1.837-1.876-1.837H7.189c-1.05 0-1.876.825-1.876 1.837-3.187 0-2.812 0-2.812 1.838 0 1.537 1.275 2.775 2.812 2.775.113 0 .225 0 .338-.037.637 1.762 2.1 3.412 3.9 3.637v2.775H8.125a.433.433 0 00-.45.45c0 .262.225.45.45.45h3.75c.262 0 .488-.225.488-.45 0-.263-.226-.45-.488-.45h-1.388v-2.775c1.763-.263 3.263-1.875 3.9-3.675.113 0 .226.037.338.038 1.537 0 2.813-1.238 2.813-2.776-.038-1.8.337-1.8-2.85-1.8zM5.312 8.838c-1.05 0-1.874-.825-1.874-1.838 0-1.013.037-.938 1.874-.938v2.776zM13.75 7.9c0 2.025-1.688 4.612-3.75 4.612-2.062 0-3.75-2.55-3.75-4.612V5.125c0-.45.487-.938.938-.938h5.625c.45 0 .937.45.937.938V7.9zm.938.938V6.062c1.837 0 1.874-.112 1.874.938 0 1.012-.862 1.838-1.875 1.838z" fill="#1C1C28"/></svg>